<svg xmlns="http://www.w3.org/2000/svg" width="882" height="882" viewBox="0 0 882 882"><defs><style>.a{fill:#0003;}</style></defs><g transform="translate(-118.5 -123.513)"><path class="a" d="M515.629,183.939c.037,0,.075,0,.112,0l.112,0a30.212,30.212,0,1,0,0-60.425c-.043,0-.085,0-.128,0s-.085,0-.129,0a30.213,30.213,0,0,0,.032,60.426Z" transform="translate(43.767 0)"/><path class="a" d="M533.113,252.822a30.176,30.176,0,0,0,12.948-24.8h0a30.212,30.212,0,0,0-30.213-30.212l-.106,0-.106,0a30.211,30.211,0,0,0-30.2,30.229h0A30.172,30.172,0,0,0,498.4,252.831a22.529,22.529,0,0,1,9.64,18.479h0A22.527,22.527,0,0,1,498.42,289.8a30.176,30.176,0,0,0-12.936,24.8h0a30.213,30.213,0,0,0,30.229,30.2l.068,0,.067,0a30.213,30.213,0,0,0,30.213-30.213h0a30.173,30.173,0,0,0-12.948-24.8,22.529,22.529,0,0,1-9.631-18.485h0A22.528,22.528,0,0,1,533.113,252.822Z" transform="translate(43.772 8.863)"/><path class="a" d="M619.708,200.395c.036.012.073.021.109.032s.069.026.105.037A30.213,30.213,0,1,0,638.6,143c-.041-.013-.083-.023-.123-.037s-.081-.029-.121-.043a30.213,30.213,0,1,0-18.643,57.478Z" transform="translate(57.296 2.138)"/><path class="a" d="M617.9,271.309a30.175,30.175,0,0,0,19.978-19.581h0a30.214,30.214,0,0,0-19.4-38.07c-.034-.011-.068-.019-.1-.03l-.1-.036a30.214,30.214,0,0,0-38.06,19.419h0a30.174,30.174,0,0,0,4.667,27.58,22.532,22.532,0,0,1,3.459,20.556h0a22.529,22.529,0,0,1-14.865,14.611,30.176,30.176,0,0,0-19.967,19.592h0a30.214,30.214,0,0,0,19.419,38.06l.066.019.063.022a30.213,30.213,0,0,0,38.07-19.4h0a30.172,30.172,0,0,0-4.653-27.584,22.533,22.533,0,0,1-3.447-20.557h0A22.531,22.531,0,0,1,617.9,271.309Z" transform="translate(51.715 10.569)"/><path class="a" d="M713.609,248.207l.093.064.088.068a30.213,30.213,0,1,0,35.517-48.886c-.035-.025-.07-.047-.105-.073s-.067-.053-.1-.077a30.213,30.213,0,1,0-35.492,48.9Z" transform="translate(69.503 8.353)"/><path class="a" d="M692.684,314.211a30.174,30.174,0,0,0,25.051-12.449h0a30.213,30.213,0,0,0-6.684-42.2c-.029-.021-.06-.039-.089-.06s-.055-.044-.084-.065a30.212,30.212,0,0,0-42.2,6.707h0a30.173,30.173,0,0,0-4.086,27.673,22.528,22.528,0,0,1-3.062,20.617h0a22.529,22.529,0,0,1-18.652,9.3A30.177,30.177,0,0,0,617.837,336.2h0a30.214,30.214,0,0,0,6.706,42.2l.057.039c.018.012.035.027.054.04a30.211,30.211,0,0,0,42.2-6.684h0a30.171,30.171,0,0,0,4.1-27.671,22.531,22.531,0,0,1,3.074-20.616h0A22.534,22.534,0,0,1,692.684,314.211Z" transform="translate(58.878 15.527)"/><path class="a" d="M788.138,322.7c.022.03.047.059.069.09s.041.062.063.092a30.213,30.213,0,1,0,48.886-35.517c-.026-.035-.053-.067-.078-.1s-.047-.07-.073-.105A30.213,30.213,0,0,0,788.138,322.7Z" transform="translate(79.191 18.036)"/><path class="a" d="M750.149,377.329a30.172,30.172,0,0,0,27.671-4.1h0a30.211,30.211,0,0,0,6.684-42.2c-.021-.029-.044-.056-.065-.085s-.039-.059-.06-.087a30.213,30.213,0,0,0-42.205-6.662h0a30.173,30.173,0,0,0-12.435,25.056,22.533,22.533,0,0,1-9.285,18.663h0A22.531,22.531,0,0,1,699.84,371a30.177,30.177,0,0,0-27.669,4.113h0a30.214,30.214,0,0,0-6.661,42.205c.013.018.028.036.041.055s.025.037.038.055a30.214,30.214,0,0,0,42.2,6.684h0a30.174,30.174,0,0,0,12.449-25.051,22.534,22.534,0,0,1,9.294-18.657h0A22.531,22.531,0,0,1,750.149,377.329Z" transform="translate(64.563 23.249)"/><path class="a" d="M836,416.572c.011.036.026.07.037.106s.021.072.032.107a30.213,30.213,0,1,0,57.468-18.673c-.012-.04-.029-.081-.043-.121s-.023-.082-.036-.123A30.213,30.213,0,0,0,836,416.572Z" transform="translate(85.412 30.238)"/><path class="a" d="M784.667,454.485a30.172,30.172,0,0,0,27.584,4.653h0a30.213,30.213,0,0,0,19.4-38.07c-.011-.034-.025-.067-.036-.1s-.019-.068-.03-.1a30.212,30.212,0,0,0-38.08-19.377h0a30.173,30.173,0,0,0-19.57,19.987,22.532,22.532,0,0,1-14.6,14.88h0a22.528,22.528,0,0,1-20.559-3.437,30.174,30.174,0,0,0-27.586-4.638h0a30.213,30.213,0,0,0-19.377,38.08c.007.022.016.044.022.065s.012.044.019.065a30.214,30.214,0,0,0,38.07,19.4h0a30.178,30.178,0,0,0,19.581-19.978,22.531,22.531,0,0,1,14.6-14.872h0A22.533,22.533,0,0,1,784.667,454.485Z" transform="translate(68.212 32.981)"/><path class="a" d="M852.514,520.641c0,.038,0,.075,0,.113s0,.075,0,.112a30.213,30.213,0,1,0,60.426,0c0-.043,0-.085,0-.129s0-.085,0-.128a30.213,30.213,0,0,0-60.426.031Z" transform="translate(87.56 43.767)"/><path class="a" d="M792.857,538.125a30.173,30.173,0,0,0,24.8,12.949h0a30.213,30.213,0,0,0,30.213-30.213c0-.036,0-.07,0-.106s0-.071,0-.106a30.213,30.213,0,0,0-30.229-30.2h0a30.174,30.174,0,0,0-24.789,12.963,22.531,22.531,0,0,1-18.481,9.64h0a22.53,22.53,0,0,1-18.49-9.621,30.174,30.174,0,0,0-24.8-12.936h0a30.212,30.212,0,0,0-30.2,30.229c0,.022,0,.046,0,.068s0,.045,0,.067a30.213,30.213,0,0,0,30.213,30.213h0a30.174,30.174,0,0,0,24.8-12.949,22.53,22.53,0,0,1,18.485-9.63h0A22.531,22.531,0,0,1,792.857,538.125Z" transform="translate(69.472 43.772)"/><path class="a" d="M836.068,624.721c-.012.036-.021.073-.032.109s-.026.069-.037.105a30.213,30.213,0,1,0,57.468,18.673c.013-.042.023-.083.037-.124s.029-.08.043-.12a30.213,30.213,0,0,0-57.478-18.643Z" transform="translate(85.412 57.296)"/><path class="a" d="M773.926,622.91a30.171,30.171,0,0,0,19.581,19.977h0a30.213,30.213,0,0,0,38.07-19.4c.011-.035.019-.068.03-.1s.025-.066.035-.1a30.211,30.211,0,0,0-19.417-38.06h0a30.173,30.173,0,0,0-27.581,4.667,22.533,22.533,0,0,1-20.555,3.459h0a22.535,22.535,0,0,1-14.612-14.865,30.172,30.172,0,0,0-19.591-19.967h0a30.214,30.214,0,0,0-38.06,19.417c-.007.022-.012.045-.019.066s-.016.042-.022.064a30.213,30.213,0,0,0,19.4,38.07h0a30.176,30.176,0,0,0,27.584-4.653,22.529,22.529,0,0,1,20.557-3.447h0A22.534,22.534,0,0,1,773.926,622.91Z" transform="translate(68.209 51.715)"/><path class="a" d="M788.261,718.621c-.022.031-.041.063-.064.094s-.046.058-.068.089a30.213,30.213,0,0,0,48.886,35.517c.025-.035.047-.071.073-.106s.052-.066.077-.1a30.213,30.213,0,1,0-48.9-35.493Z" transform="translate(79.191 69.503)"/><path class="a" d="M729.718,697.7a30.171,30.171,0,0,0,12.449,25.05h0a30.213,30.213,0,0,0,42.2-6.683c.021-.029.039-.059.06-.088s.044-.056.064-.084a30.213,30.213,0,0,0-6.706-42.2h0a30.177,30.177,0,0,0-27.673-4.084,22.53,22.53,0,0,1-20.617-3.062h0a22.531,22.531,0,0,1-9.3-18.653,30.175,30.175,0,0,0-12.462-25.043h0a30.214,30.214,0,0,0-42.2,6.706l-.039.057-.04.053a30.213,30.213,0,0,0,6.683,42.2h0a30.172,30.172,0,0,0,27.671,4.1,22.53,22.53,0,0,1,20.616,3.074h0A22.532,22.532,0,0,1,729.718,697.7Z" transform="translate(64.557 58.878)"/><path class="a" d="M713.778,793.151c-.03.022-.059.047-.09.068s-.062.041-.093.064a30.213,30.213,0,0,0,35.517,48.886c.036-.026.068-.054.1-.078s.071-.048.105-.073a30.213,30.213,0,1,0-35.543-48.867Z" transform="translate(69.503 79.191)"/><path class="a" d="M664.563,755.162a30.179,30.179,0,0,0,4.1,27.671h0a30.214,30.214,0,0,0,42.2,6.684l.085-.065c.029-.021.058-.039.087-.06a30.213,30.213,0,0,0,6.662-42.205h0A30.176,30.176,0,0,0,692.64,734.75a22.528,22.528,0,0,1-18.662-9.283h0a22.528,22.528,0,0,1-3.084-20.614,30.179,30.179,0,0,0-4.113-27.67h0a30.214,30.214,0,0,0-42.205-6.662c-.019.013-.036.029-.055.042l-.055.038a30.211,30.211,0,0,0-6.684,42.2h0a30.177,30.177,0,0,0,25.051,12.45,22.528,22.528,0,0,1,18.656,9.294h0A22.531,22.531,0,0,1,664.563,755.162Z" transform="translate(58.87 64.563)"/><path class="a" d="M619.908,841.016c-.036.011-.071.026-.106.037s-.072.02-.107.032a30.213,30.213,0,1,0,18.673,57.468c.04-.013.08-.029.121-.043s.082-.024.122-.037a30.212,30.212,0,1,0-18.7-57.458Z" transform="translate(57.296 85.412)"/><path class="a" d="M584.839,789.68a30.173,30.173,0,0,0-4.652,27.583h0a30.212,30.212,0,0,0,38.07,19.4c.034-.011.066-.025.1-.036s.067-.019.1-.03a30.213,30.213,0,0,0,19.378-38.081h0a30.177,30.177,0,0,0-19.987-19.571,22.527,22.527,0,0,1-14.88-14.6h0a22.529,22.529,0,0,1,3.436-20.558,30.175,30.175,0,0,0,4.638-27.586h0a30.213,30.213,0,0,0-38.081-19.378l-.065.023-.064.019a30.213,30.213,0,0,0-19.4,38.07h0a30.176,30.176,0,0,0,19.977,19.581,22.531,22.531,0,0,1,14.873,14.6h0A22.534,22.534,0,0,1,584.839,789.68Z" transform="translate(51.706 68.212)"/><path class="a" d="M515.837,857.527c-.037,0-.075,0-.112,0s-.075,0-.112,0a30.213,30.213,0,0,0,0,60.426c.043,0,.085,0,.128,0s.085,0,.129,0a30.213,30.213,0,0,0-.032-60.426Z" transform="translate(43.767 87.56)"/><path class="a" d="M498.348,797.87a30.173,30.173,0,0,0-12.948,24.8h0a30.213,30.213,0,0,0,30.213,30.213c.036,0,.07,0,.106,0s.071,0,.106,0a30.212,30.212,0,0,0,30.2-30.229h0a30.169,30.169,0,0,0-12.961-24.789,22.531,22.531,0,0,1-9.64-18.481h0a22.53,22.53,0,0,1,9.621-18.491,30.175,30.175,0,0,0,12.936-24.8h0a30.213,30.213,0,0,0-30.229-30.2l-.068,0h-.067A30.212,30.212,0,0,0,485.4,736.1h0a30.173,30.173,0,0,0,12.948,24.8,22.531,22.531,0,0,1,9.631,18.486h0A22.531,22.531,0,0,1,498.348,797.87Z" transform="translate(43.767 69.471)"/><path class="a" d="M411.758,841.08l-.109-.031-.105-.038a30.213,30.213,0,0,0-18.673,57.469c.041.013.083.023.123.037s.081.029.121.043a30.213,30.213,0,0,0,18.643-57.479Z" transform="translate(30.238 85.412)"/><path class="a" d="M416.411,778.938a30.18,30.18,0,0,0-19.978,19.581h0a30.212,30.212,0,0,0,19.4,38.069c.034.011.068.02.1.031l.1.035a30.213,30.213,0,0,0,38.06-19.417h0a30.176,30.176,0,0,0-4.667-27.581,22.531,22.531,0,0,1-3.459-20.555h0a22.531,22.531,0,0,1,14.865-14.612A30.176,30.176,0,0,0,480.8,734.9h0a30.213,30.213,0,0,0-19.419-38.06c-.021-.007-.044-.012-.066-.02l-.063-.022a30.214,30.214,0,0,0-38.07,19.4h0a30.172,30.172,0,0,0,4.653,27.584,22.533,22.533,0,0,1,3.447,20.557h0A22.532,22.532,0,0,1,416.411,778.938Z" transform="translate(32.977 68.209)"/><path class="a" d="M317.852,793.274c-.03-.022-.062-.043-.093-.064l-.088-.068a30.213,30.213,0,1,0-35.517,48.885c.035.026.07.048.105.073l.1.078a30.213,30.213,0,1,0,35.492-48.9Z" transform="translate(18.036 79.191)"/><path class="a" d="M344.192,734.73a30.179,30.179,0,0,0-25.051,12.45h0a30.212,30.212,0,0,0,6.684,42.2c.029.021.059.04.088.062s.055.044.084.064a30.212,30.212,0,0,0,42.2-6.706h0a30.174,30.174,0,0,0,4.085-27.673,22.53,22.53,0,0,1,3.062-20.619h0a22.531,22.531,0,0,1,18.652-9.3,30.171,30.171,0,0,0,25.044-12.462h0a30.212,30.212,0,0,0-6.706-42.2l-.057-.039c-.018-.013-.035-.028-.054-.042a30.212,30.212,0,0,0-42.2,6.684h0a30.172,30.172,0,0,0-4.1,27.671,22.531,22.531,0,0,1-3.074,20.616h0A22.531,22.531,0,0,1,344.192,734.73Z" transform="translate(23.246 64.557)"/><path class="a" d="M243.317,718.791c-.022-.031-.047-.059-.069-.089s-.041-.063-.063-.093A30.213,30.213,0,0,0,194.3,754.126c.026.035.053.067.078.1s.047.072.073.106a30.213,30.213,0,0,0,48.867-35.543Z" transform="translate(8.353 69.503)"/><path class="a" d="M288.765,669.576a30.175,30.175,0,0,0-27.671,4.1h0a30.213,30.213,0,0,0-6.684,42.2c.021.029.044.056.065.085s.039.058.06.087a30.214,30.214,0,0,0,42.205,6.662h0a30.177,30.177,0,0,0,12.435-25.058,22.532,22.532,0,0,1,9.285-18.662h0a22.531,22.531,0,0,1,20.614-3.085,30.173,30.173,0,0,0,27.669-4.112h0a30.212,30.212,0,0,0,6.661-42.2c-.013-.019-.028-.036-.041-.055s-.025-.037-.038-.055a30.213,30.213,0,0,0-42.2-6.685h0a30.171,30.171,0,0,0-12.449,25.05,22.532,22.532,0,0,1-9.293,18.657h0A22.531,22.531,0,0,1,288.765,669.576Z" transform="translate(15.524 58.87)"/><path class="a" d="M195.447,624.921c-.011-.036-.026-.071-.037-.106s-.021-.072-.032-.108a30.212,30.212,0,1,0-57.468,18.672c.012.042.029.081.043.122s.024.082.036.122a30.213,30.213,0,0,0,57.459-18.7Z" transform="translate(2.138 57.296)"/><path class="a" d="M255.554,589.852A30.175,30.175,0,0,0,227.97,585.2h0a30.213,30.213,0,0,0-19.4,38.07c.011.035.025.067.036.1s.019.068.03.1a30.213,30.213,0,0,0,38.08,19.378h0a30.173,30.173,0,0,0,19.57-19.988,22.534,22.534,0,0,1,14.6-14.88h0a22.535,22.535,0,0,1,20.559,3.437,30.175,30.175,0,0,0,27.586,4.638h0a30.212,30.212,0,0,0,19.377-38.081c-.007-.022-.016-.042-.022-.065s-.012-.042-.019-.064a30.212,30.212,0,0,0-38.07-19.4h0a30.174,30.174,0,0,0-19.581,19.977,22.526,22.526,0,0,1-14.6,14.872h0A22.53,22.53,0,0,1,255.554,589.852Z" transform="translate(10.567 51.706)"/><path class="a" d="M178.926,520.85c0-.038,0-.075,0-.113s0-.074,0-.112a30.213,30.213,0,1,0-60.426,0c0,.044,0,.086,0,.129s0,.085,0,.128a30.213,30.213,0,1,0,60.426-.031Z" transform="translate(0 43.767)"/><path class="a" d="M247.809,503.361a30.175,30.175,0,0,0-24.8-12.949h0A30.213,30.213,0,0,0,192.8,520.625c0,.036,0,.072,0,.107s0,.071,0,.106a30.213,30.213,0,0,0,30.229,30.2h0a30.174,30.174,0,0,0,24.789-12.961,22.532,22.532,0,0,1,18.481-9.642h0a22.531,22.531,0,0,1,18.49,9.622,30.179,30.179,0,0,0,24.8,12.936h0a30.213,30.213,0,0,0,30.2-30.229c0-.023,0-.046,0-.069s0-.045,0-.067a30.213,30.213,0,0,0-30.213-30.213h0a30.177,30.177,0,0,0-24.8,12.949,22.528,22.528,0,0,1-18.485,9.632h0A22.529,22.529,0,0,1,247.809,503.361Z" transform="translate(8.863 43.767)"/><path class="a" d="M195.382,416.77c.012-.036.021-.072.032-.107s.026-.07.037-.106a30.212,30.212,0,1,0-57.468-18.672c-.013.04-.023.082-.037.123s-.029.079-.043.121a30.213,30.213,0,1,0,57.478,18.642Z" transform="translate(2.138 30.238)"/><path class="a" d="M266.3,421.423a30.173,30.173,0,0,0-19.581-19.977h0a30.213,30.213,0,0,0-38.07,19.4c-.011.034-.019.068-.03.1s-.025.067-.035.1A30.212,30.212,0,0,0,228,459.107h0a30.179,30.179,0,0,0,27.582-4.667,22.53,22.53,0,0,1,20.555-3.459h0a22.534,22.534,0,0,1,14.612,14.864,30.172,30.172,0,0,0,19.591,19.967h0a30.212,30.212,0,0,0,38.06-19.417c.007-.021.012-.044.019-.066s.016-.041.022-.063a30.212,30.212,0,0,0-19.4-38.07h0a30.175,30.175,0,0,0-27.584,4.652A22.533,22.533,0,0,1,280.9,436.3h0A22.535,22.535,0,0,1,266.3,421.423Z" transform="translate(10.569 32.977)"/><path class="a" d="M243.194,322.865c.022-.03.041-.063.064-.093s.046-.058.068-.09a30.213,30.213,0,0,0-48.886-35.517c-.025.036-.047.072-.073.106s-.053.067-.077.1a30.213,30.213,0,0,0,48.9,35.492Z" transform="translate(8.353 18.036)"/><path class="a" d="M309.2,349.205a30.173,30.173,0,0,0-12.449-25.051h0a30.212,30.212,0,0,0-42.2,6.684c-.021.029-.039.059-.06.088s-.044.055-.064.084a30.211,30.211,0,0,0,6.706,42.2h0a30.173,30.173,0,0,0,27.673,4.084,22.531,22.531,0,0,1,20.617,3.062h0a22.534,22.534,0,0,1,9.3,18.653,30.178,30.178,0,0,0,12.462,25.044h0a30.213,30.213,0,0,0,42.2-6.707c.013-.018.026-.038.039-.056s.027-.036.04-.054a30.214,30.214,0,0,0-6.683-42.2h0a30.179,30.179,0,0,0-27.671-4.1,22.533,22.533,0,0,1-20.616-3.072h0A22.532,22.532,0,0,1,309.2,349.205Z" transform="translate(15.527 23.246)"/><path class="a" d="M317.683,248.329l.09-.068c.03-.022.062-.041.093-.064a30.213,30.213,0,0,0-35.517-48.885c-.036.026-.068.053-.1.078s-.07.047-.105.073a30.213,30.213,0,1,0,35.543,48.866Z" transform="translate(18.036 8.353)"/><path class="a" d="M372.317,293.778a30.18,30.18,0,0,0-4.1-27.672h0a30.213,30.213,0,0,0-42.2-6.683l-.085.065c-.029.02-.058.039-.087.06a30.211,30.211,0,0,0-6.662,42.2h0a30.176,30.176,0,0,0,25.058,12.436,22.531,22.531,0,0,1,18.662,9.283h0a22.528,22.528,0,0,1,3.084,20.614,30.177,30.177,0,0,0,4.113,27.669h0a30.213,30.213,0,0,0,42.205,6.662l.055-.041c.018-.013.037-.025.055-.038a30.212,30.212,0,0,0,6.684-42.2h0a30.173,30.173,0,0,0-25.051-12.449,22.53,22.53,0,0,1-18.656-9.293h0A22.528,22.528,0,0,1,372.317,293.778Z" transform="translate(23.25 15.524)"/><path class="a" d="M411.559,200.46l.106-.038.107-.031A30.213,30.213,0,1,0,393.1,142.921c-.04.013-.079.029-.121.044s-.082.022-.122.036a30.213,30.213,0,1,0,18.7,57.459Z" transform="translate(30.238 2.138)"/><path class="a" d="M449.473,260.567a30.175,30.175,0,0,0,4.652-27.584h0a30.212,30.212,0,0,0-38.07-19.4l-.1.035c-.034.011-.067.02-.1.03a30.214,30.214,0,0,0-19.378,38.08h0a30.173,30.173,0,0,0,19.987,19.57,22.529,22.529,0,0,1,14.88,14.6h0a22.53,22.53,0,0,1-3.436,20.558,30.176,30.176,0,0,0-4.638,27.586h0a30.213,30.213,0,0,0,38.08,19.377l.065-.022.064-.019a30.213,30.213,0,0,0,19.4-38.07h0A30.174,30.174,0,0,0,460.9,295.728a22.535,22.535,0,0,1-14.873-14.6h0A22.533,22.533,0,0,1,449.473,260.567Z" transform="translate(32.981 10.567)"/><path class="a" d="M515.629,183.939c.037,0,.075,0,.112,0l.112,0a30.212,30.212,0,1,0,0-60.425c-.043,0-.085,0-.128,0s-.085,0-.129,0a30.213,30.213,0,0,0,.032,60.426Z" transform="translate(43.767 0)"/></g></svg>